<svg xmlns="http://www.w3.org/2000/svg" width="48" height="45" viewBox="0 0 48 45" fill="none"><rect width="48" height="45" rx="5" fill="#32B5AE"></rect><path d="M35.0441 19.416C35.1712 19.4118 35.2978 19.4323 35.4165 19.4762C35.5352 19.52 35.6435 19.5865 35.7349 19.6715C35.8264 19.7565 35.8991 19.8584 35.9488 19.971C35.9984 20.0837 36.024 20.2048 36.024 20.3271C36.024 20.4495 35.9984 20.5706 35.9488 20.6833C35.8991 20.7959 35.8264 20.8978 35.7349 20.9828C35.6435 21.0678 35.5352 21.1343 35.4165 21.1781C35.2978 21.222 35.1712 21.2425 35.0441 21.2383H32.4128V22.8623H35.0441C35.172 22.8563 35.2997 22.8754 35.4197 22.9183C35.5396 22.9613 35.6493 23.0272 35.7419 23.1121C35.8346 23.1971 35.9084 23.2993 35.9588 23.4125C36.0092 23.5257 36.0352 23.6476 36.0352 23.7708C36.0352 23.8939 36.0092 24.0158 35.9588 24.129C35.9084 24.2422 35.8346 24.3444 35.7419 24.4294C35.6493 24.5143 35.5396 24.5802 35.4197 24.6232C35.2997 24.6661 35.172 24.6852 35.0441 24.6792H31.47C31.2201 24.6783 30.9808 24.5822 30.8044 24.412C30.6279 24.2418 30.5287 24.0112 30.5284 23.7708V16.8846C30.5284 16.3833 30.9502 15.9719 31.47 15.9719H35.0509C35.2938 15.984 35.5226 16.0855 35.6898 16.2555C35.8571 16.4255 35.95 16.6509 35.9492 16.885C35.9485 17.1191 35.8542 17.344 35.6859 17.5131C35.5177 17.6821 35.2882 17.7823 35.0453 17.793H32.4139V19.4171L35.0441 19.416ZM29.2684 23.7697C29.2663 24.0108 29.1654 24.2414 28.9876 24.4113C28.8098 24.5812 28.5694 24.6767 28.3189 24.677C28.1705 24.6784 28.0239 24.6465 27.8905 24.584C27.7571 24.5214 27.6407 24.4298 27.5505 24.3164L23.8886 19.5232V23.7686C23.8886 24.0095 23.7892 24.2406 23.6122 24.4109C23.4352 24.5813 23.1951 24.677 22.9447 24.677C22.6944 24.677 22.4543 24.5813 22.2773 24.4109C22.1003 24.2406 22.0009 24.0095 22.0009 23.7686V16.8825C22.0009 16.4938 22.2652 16.1451 22.6455 16.0206C22.7394 15.9887 22.8384 15.9729 22.938 15.9741C23.2305 15.9741 23.5005 16.1267 23.6816 16.3411L27.3727 21.1451V16.8825C27.3727 16.3812 27.7946 15.9697 28.3166 15.9697C28.8386 15.9697 29.2661 16.3812 29.2661 16.8825L29.2684 23.7697ZM20.6554 23.7697C20.6542 24.0112 20.5536 24.2424 20.3756 24.4127C20.1976 24.5829 19.9568 24.6784 19.7059 24.6781C19.4568 24.6761 19.2186 24.5795 19.0431 24.4094C18.8676 24.2393 18.769 24.0094 18.7688 23.7697V16.8835C18.7688 16.3822 19.1906 15.9708 19.7126 15.9708C20.2335 15.9708 20.6565 16.3822 20.6565 16.8835L20.6554 23.7697ZM16.9575 24.6781H13.3766C13.126 24.6775 12.8856 24.5818 12.7079 24.4117C12.5301 24.2416 12.4292 24.0109 12.4271 23.7697V16.8835C12.4271 16.3822 12.8546 15.9708 13.3766 15.9708C13.8986 15.9708 14.3205 16.3822 14.3205 16.8835V22.8613H16.9575C17.2078 22.8613 17.4479 22.957 17.6249 23.1273C17.8019 23.2977 17.9014 23.5287 17.9014 23.7697C17.9014 24.0106 17.8019 24.2416 17.6249 24.412C17.4479 24.5824 17.2078 24.6781 16.9575 24.6781ZM42 20.0635C42 12.3101 33.9191 6 24 6C14.0809 6 6 12.3101 6 20.0635C6 27.0113 12.4046 32.831 21.0525 33.9365C21.6386 34.0545 22.4351 34.3089 22.641 34.7886C22.8221 35.2216 22.758 35.8929 22.6995 36.3509L22.4531 37.8223C22.3822 38.2565 22.0897 39.532 24.0236 38.7535C25.9631 37.975 34.4006 32.8667 38.1795 28.6809C40.7636 25.9579 42 23.1601 42 20.0635Z" fill="white"></path></svg>